<svg width="51" height="50" viewBox="0 0 51 50" fill="none" xmlns="http://www.w3.org/2000/svg">
<g clip-path="url(#clip0_6307_112)">
<path d="M42.1666 45.8333H8.83331V41.6667C8.83331 38.904 9.93078 36.2545 11.8843 34.301C13.8378 32.3475 16.4873 31.25 19.25 31.25H31.75C34.5126 31.25 37.1622 32.3475 39.1157 34.301C41.0692 36.2545 42.1666 38.904 42.1666 41.6667V45.8333ZM25.5 27.0833C23.8585 27.0833 22.233 26.76 20.7164 26.1318C19.1999 25.5037 17.8219 24.5829 16.6611 23.4222C15.5004 22.2614 14.5797 20.8835 13.9515 19.3669C13.3233 17.8503 13 16.2249 13 14.5833C13 12.9418 13.3233 11.3164 13.9515 9.7998C14.5797 8.28323 15.5004 6.90524 16.6611 5.74451C17.8219 4.58378 19.1999 3.66303 20.7164 3.03485C22.233 2.40667 23.8585 2.08334 25.5 2.08334C28.8152 2.08334 31.9946 3.4003 34.3388 5.74451C36.683 8.08871 38 11.2681 38 14.5833C38 17.8986 36.683 21.078 34.3388 23.4222C31.9946 25.7664 28.8152 27.0833 25.5 27.0833Z" fill="#828282"/>
</g>
<defs>
<clipPath id="clip0_6307_112">
<rect width="50" height="50" fill="white" transform="translate(0.5)"/>
</clipPath>
</defs>
</svg>
